<?xml version="1.0" encoding="utf-8"?>
<!-- Generator: Adobe Illustrator 27.0.0, SVG Export Plug-In . SVG Version: 6.00 Build 0)  -->
<svg version="1.1" id="Layer_1" xmlns="http://www.w3.org/2000/svg" xmlns:xlink="http://www.w3.org/1999/xlink" x="0px" y="0px"
	 viewBox="0 0 500 500" style="enable-background:new 0 0 500 500;" xml:space="preserve">
<style type="text/css">
	.st0{clip-path:url(#SVGID_00000136412401944292653010000006268797920165968046_);}
	.st1{fill:#19191E;}
	.st2{clip-path:url(#SVGID_00000103251669090532887930000007742719869165760687_);}
	.st3{clip-path:url(#SVGID_00000029748861035097967370000001891167568226882237_);}
	.st4{fill:#FFFFFF;}
</style>
<g>
	<defs>
		<rect id="SVGID_1_" x="286" y="215.3" width="22.4" height="22.4"/>
	</defs>
	<clipPath id="SVGID_00000096757243702472905590000003458531660940480385_">
		<use xlink:href="#SVGID_1_"  style="overflow:visible;"/>
	</clipPath>
	<g style="clip-path:url(#SVGID_00000096757243702472905590000003458531660940480385_);">
		<path class="st1" d="M297.2,237.7c-6.2,0-11.2-5-11.2-11.2c0-6.2,5-11.2,11.2-11.2c6.2,0,11.2,5,11.2,11.2
			C308.4,232.6,303.4,237.7,297.2,237.7z M297.2,215.4c-6.1,0-11,4.9-11,11c0,6.1,4.9,11,11,11c6.1,0,11-4.9,11-11
			C308.3,220.4,303.3,215.4,297.2,215.4z"/>
	</g>
</g>
<g>
	<defs>
		<rect id="SVGID_00000075136719692504864170000016650647170065546376_" x="297.2" y="209" width="21.1" height="30"/>
	</defs>
	<clipPath id="SVGID_00000023977582258029941340000015634413312609621901_">
		<use xlink:href="#SVGID_00000075136719692504864170000016650647170065546376_"  style="overflow:visible;"/>
	</clipPath>
	<g style="clip-path:url(#SVGID_00000023977582258029941340000015634413312609621901_);">
		<g>
			<defs>
				
					<rect id="SVGID_00000160189888388859180490000002362020274205480107_" x="299.5" y="210.7" transform="matrix(0.9832 -0.1826 0.1826 0.9832 -35.6901 60.3068)" width="20.4" height="26.7"/>
			</defs>
			<clipPath id="SVGID_00000147183176832606780160000000967032658386937747_">
				<use xlink:href="#SVGID_00000160189888388859180490000002362020274205480107_"  style="overflow:visible;"/>
			</clipPath>
			<g style="clip-path:url(#SVGID_00000147183176832606780160000000967032658386937747_);">
				<path class="st4" d="M297.2,212.7l20-3.7l4.9,26.2l-20,3.7L297.2,212.7z"/>
			</g>
		</g>
	</g>
</g>
<g>
	<g transform="translate(192.606935, 90.091829)">
		<g>
			<path d="M105.9,125.4L105.9,125.4l0.2-0.3l0.6,0.1l0.1,0.3l0.1,0l-0.3-1.2l-0.1,0L105.9,125.4z M106.1,125.1l0.4-0.7l0,0l0.2,0.8
				L106.1,125.1z"/>
		</g>
	</g>
</g>
<g>
	<g transform="translate(207.240521, 92.728452)">
		<g>
			<path d="M92.9,123.1l0.5,0.2c0.2,0.1,0.4,0,0.5-0.2c0-0.2,0-0.3-0.2-0.4l0,0c0.1,0,0.2-0.1,0.3-0.2c0.1-0.2,0-0.3-0.2-0.4
				l-0.5-0.2L92.9,123.1z M93.2,122.5l0.1-0.4l0.4,0.1c0.2,0.1,0.2,0.2,0.2,0.3c0,0.1-0.2,0.2-0.3,0.1L93.2,122.5z M93,123.1
				l0.2-0.5l0.4,0.1c0.2,0.1,0.3,0.2,0.2,0.3c0,0.1-0.2,0.2-0.4,0.1L93,123.1z"/>
		</g>
	</g>
</g>
<g>
	<g transform="translate(221.322823, 97.46292)">
		<g>
			<path d="M80.3,118.9l0.3,0.2c0.4,0.2,0.6,0.1,0.8-0.3c0.2-0.3,0.1-0.6-0.3-0.8l-0.3-0.2L80.3,118.9z M80.4,118.9l0.5-0.9l0.3,0.1
				c0.3,0.2,0.4,0.4,0.3,0.7c-0.1,0.3-0.4,0.4-0.7,0.2L80.4,118.9z"/>
		</g>
	</g>
</g>
<g>
	<g transform="translate(235.292679, 104.715992)">
		<g>
			<path d="M68.2,112.7c0.2,0.2,0.5,0.1,0.6-0.1l0.4-0.6l-0.1,0l-0.4,0.6C68.7,112.8,68.5,112.8,68.2,112.7
				c-0.2-0.2-0.2-0.4-0.1-0.6l0.4-0.6l-0.1,0l-0.4,0.6C67.9,112.3,68,112.6,68.2,112.7z"/>
		</g>
	</g>
</g>
<g>
	<g transform="translate(247.447866, 113.580374)">
		<g>
			<path d="M57.6,105.2c0,0,0.1,0.1,0.2,0l0-0.1C57.8,105.2,57.7,105.2,57.6,105.2c0-0.1,0-0.1,0.1-0.2l0.1-0.2c0-0.1,0.1-0.1,0-0.2
				l0,0c0.2,0.1,0.3,0.1,0.4,0c0.1-0.1,0.1-0.3-0.1-0.5l-0.4-0.4l-0.8,0.9l0,0l0.4-0.4l0.3,0.3c0.1,0.1,0.1,0.2,0,0.3l-0.1,0.2
				C57.6,105.1,57.6,105.1,57.6,105.2z M57.5,104.2l0.4-0.4l0.3,0.3c0.1,0.1,0.2,0.3,0,0.4c-0.1,0.1-0.3,0.1-0.4,0L57.5,104.2z"/>
		</g>
	</g>
</g>
<g>
	<g transform="translate(258.30061, 124.353209)">
		<g>
			<path d="M47.3,94.9L47.3,94.9l0.4,0l0.4,0.5l-0.2,0.3l0,0.1l0.6-1.1l-0.1-0.1L47.3,94.9z M47.7,94.9l0.8-0.2l0,0l-0.4,0.7
				L47.7,94.9z"/>
		</g>
	</g>
</g>
<g>
	<g transform="translate(267.182708, 136.274598)">
		<g>
			<path d="M39.4,84.4L39.4,84.4l0.5-0.2l0.4,0.6l-0.5,0.3l0,0.1l1-0.6l0-0.1l-0.5,0.3L40,84.1l0.5-0.3l0-0.1L39.4,84.4z"/>
		</g>
	</g>
</g>
<g>
	<g transform="translate(274.350565, 149.476289)">
		<g>
			<path d="M33,72.6L33,72.6l1-0.3l0,0l-0.9,0.8l0,0.1l1.2,0.1l0,0l-1,0.4l0,0.1l1.1-0.4l0-0.1l-1.2-0.1l0,0l0.9-0.8l0-0.1L33,72.6z
				"/>
		</g>
	</g>
</g>
<g>
	<g transform="translate(280.078368, 166.624862)">
		<g>
			<path d="M27.9,57.2L27.9,57.2l0.3,0.1l0.1,0.6l-0.3,0.2l0,0.1l1.1-0.7l0-0.1L27.9,57.2z M28.3,57.4l0.8,0.1l0,0L28.4,58
				L28.3,57.4z"/>
		</g>
	</g>
</g>
<g>
	<g transform="translate(282.508071, 181.291401)">
		<g>
			<path d="M25.7,44.3L25.7,44.3l1.1,0v0L25.8,45l0,0.1l1.2,0l0-0.1l-1.1,0v0l1.1-0.7l0-0.1L25.7,44.3z"/>
		</g>
	</g>
</g>
<g>
	<g transform="translate(282.636117, 196.436752)">
	</g>
</g>
<g>
	<g transform="translate(281.715903, 205.985456)">
		<g>
			<path d="M26.4,22.2l-0.1,0.4c-0.1,0.4,0.1,0.6,0.4,0.7c0.4,0.1,0.6-0.1,0.7-0.5l0.1-0.4L26.4,22.2z M26.5,22.3l1,0.2l-0.1,0.3
				c-0.1,0.3-0.3,0.5-0.6,0.4c-0.3-0.1-0.5-0.3-0.4-0.6L26.5,22.3z"/>
		</g>
	</g>
</g>
<g>
	<g transform="translate(278.04765, 221.295802)">
		<g>
			<path d="M29.7,8.5L29.7,8.5l0.2,0.3l-0.2,0.6l-0.3,0l0,0.1l1.3,0l0-0.1L29.7,8.5z M30,8.8l0.6,0.5l0,0l-0.8,0L30,8.8z"/>
		</g>
	</g>
</g>
<g>
	<g transform="translate(272.616998, 235.070752)">
		<g>
			<path d="M34.4-3.5L34.4-3.5l0.7,0.9l0,0L34-2.8l-0.1,0.1l0.8,0.9l0-0.1L34-2.7l0,0l1.1,0.3l0.1-0.1L34.4-3.5L34.4-3.5l1.1,0.4
				l0-0.1L34.4-3.5z"/>
		</g>
	</g>
</g>
<g>
	<g transform="translate(262.172849, 251.738178)">
		<g>
			<path d="M43.4-18.2c-0.2,0.3-0.2,0.6,0.1,0.9c0.3,0.2,0.6,0.2,0.9-0.1c0.2-0.3,0.2-0.6-0.1-0.9C44-18.5,43.6-18.4,43.4-18.2z
				 M43.4-18.1c0.2-0.3,0.5-0.3,0.8,0c0.3,0.2,0.3,0.5,0.1,0.8c-0.2,0.3-0.5,0.3-0.8,0C43.2-17.5,43.2-17.9,43.4-18.1z"/>
		</g>
	</g>
</g>
<g>
	<g transform="translate(250.171548, 264.727627)">
		<g>
			<path d="M54.1-29.9c-0.2,0.2-0.2,0.4-0.1,0.6l0.5,0.6l0.1,0l-0.5-0.6C53.9-29.5,54-29.7,54.1-29.9c0.2-0.1,0.4-0.1,0.6,0.1
				l0.5,0.6l0.1,0l-0.5-0.6C54.6-30.1,54.3-30.1,54.1-29.9z"/>
		</g>
	</g>
</g>
<g>
	<g transform="translate(238.362402, 274.039256)">
		<g>
			<path d="M65-38.5l-0.3,0.2c-0.3,0.2-0.4,0.5-0.2,0.8c0.2,0.3,0.5,0.4,0.8,0.2l0.3-0.2L65-38.5z M65-38.4l0.5,0.9l-0.3,0.2
				c-0.3,0.2-0.6,0.1-0.7-0.2c-0.2-0.3-0.1-0.5,0.2-0.7L65-38.4z"/>
		</g>
	</g>
</g>
<g>
	<g transform="translate(84.542943, 230.755081)">
		<g>
			<path d="M209.7,0.1h1.5c0,0-0.4-0.1-0.7-1l-3.7-9.5L203.1-1c-0.3,0.9-0.7,1-0.7,1h0.8c0,0-0.2-0.1,0.1-1l0.8-2.1h4.7l0.8,2.1
				C210-0.1,209.7,0.1,209.7,0.1z M204.1-3.3l2.3-5.8l2.3,5.8H204.1z"/>
		</g>
	</g>
</g>
<g>
	<g transform="translate(186.962808, 230.755081)">
		<g>
			<path d="M113.4-10.5c-0.2,0-2.3,0-2.3,0s0.3,0.1,0.3,1V-1c0,0.9-0.3,1-0.3,1s2.2,0,2.4,0c3.9,0,5.5-2.4,5.5-5.3
				C119-8.1,117.5-10.5,113.4-10.5z M113.2-0.3h-0.8c-0.1-0.1-0.1-0.4-0.1-0.7v-8.5c0-0.3,0-0.5,0.1-0.7h0.8c3.9,0,4.8,2.2,4.8,5
				C118-2.5,117-0.3,113.2-0.3z"/>
		</g>
	</g>
</g>
</svg>
