<?xml version="1.0" encoding="utf-8"?>
<!-- Generator: Adobe Illustrator 27.0.0, SVG Export Plug-In . SVG Version: 6.00 Build 0)  -->
<svg version="1.1" id="Layer_1" xmlns="http://www.w3.org/2000/svg" xmlns:xlink="http://www.w3.org/1999/xlink" x="0px" y="0px"
	 viewBox="0 0 35 35" style="enable-background:new 0 0 35 35;" xml:space="preserve">
<style type="text/css">
	.st0{clip-path:url(#SVGID_00000012442656808576264650000008072662124682195625_);}
	.st1{fill:#19191E;}
	.st2{clip-path:url(#SVGID_00000152251720833307274960000014996725983124107425_);}
	.st3{clip-path:url(#SVGID_00000111887065609620478430000015251280906417025721_);}
	.st4{fill:#FFFFFF;}
</style>
<g>
	<defs>
		<rect id="SVGID_1_" x="2.7" y="6.9" width="22.4" height="22.4"/>
	</defs>
	<clipPath id="SVGID_00000099654814661915683810000007435450221710913212_">
		<use xlink:href="#SVGID_1_"  style="overflow:visible;"/>
	</clipPath>
	<g style="clip-path:url(#SVGID_00000099654814661915683810000007435450221710913212_);">
		<path class="st1" d="M13.9,29.3c-6.2,0-11.2-5-11.2-11.2c0-6.2,5-11.2,11.2-11.2c6.2,0,11.2,5,11.2,11.2
			C25.2,24.3,20.1,29.3,13.9,29.3z M13.9,7.1c-6.1,0-11,4.9-11,11c0,6.1,4.9,11,11,11c6.1,0,11-4.9,11-11C25,12,20,7.1,13.9,7.1z"/>
	</g>
</g>
<g>
	<defs>
		<rect id="SVGID_00000074421152767034361870000014926466091628935609_" x="13.9" y="0.6" width="21.1" height="30"/>
	</defs>
	<clipPath id="SVGID_00000078726183534177290560000008064442105909311160_">
		<use xlink:href="#SVGID_00000074421152767034361870000014926466091628935609_"  style="overflow:visible;"/>
	</clipPath>
	<g style="clip-path:url(#SVGID_00000078726183534177290560000008064442105909311160_);">
		<g>
			<defs>
				
					<rect id="SVGID_00000002347614825715876800000017008728527709468288_" x="16.2" y="2.3" transform="matrix(0.9832 -0.1826 0.1826 0.9832 -2.408 5.0799)" width="20.4" height="26.7"/>
			</defs>
			<clipPath id="SVGID_00000142879465911074046160000014178636987523360134_">
				<use xlink:href="#SVGID_00000002347614825715876800000017008728527709468288_"  style="overflow:visible;"/>
			</clipPath>
			<g style="clip-path:url(#SVGID_00000142879465911074046160000014178636987523360134_);">
				<path class="st4" d="M13.9,4.4l20-3.7l4.9,26.2l-20,3.7L13.9,4.4z"/>
			</g>
		</g>
	</g>
</g>
<g>
	<g transform="translate(192.606935, 90.091829)">
		<g>
			<path d="M-177.4-82.9L-177.4-82.9l0.2-0.3l0.6,0.1l0.1,0.3l0.1,0l-0.3-1.2l-0.1,0L-177.4-82.9z M-177.2-83.3l0.4-0.7l0,0l0.2,0.8
				L-177.2-83.3z"/>
		</g>
	</g>
</g>
<g>
	<g transform="translate(207.240521, 92.728452)">
		<g>
			<path d="M-190.4-85.2l0.5,0.2c0.2,0.1,0.4,0,0.5-0.2c0-0.2,0-0.3-0.2-0.4l0,0c0.1,0,0.2-0.1,0.3-0.2c0.1-0.2,0-0.3-0.2-0.4
				l-0.5-0.2L-190.4-85.2z M-190.1-85.8l0.1-0.4l0.4,0.1c0.2,0.1,0.2,0.2,0.2,0.3c0,0.1-0.2,0.2-0.3,0.1L-190.1-85.8z M-190.3-85.3
				l0.2-0.5l0.4,0.1c0.2,0.1,0.3,0.2,0.2,0.3c0,0.1-0.2,0.2-0.4,0.1L-190.3-85.3z"/>
		</g>
	</g>
</g>
<g>
	<g transform="translate(221.322823, 97.46292)">
		<g>
			<path d="M-202.9-89.5l0.3,0.2c0.4,0.2,0.6,0.1,0.8-0.3c0.2-0.3,0.1-0.6-0.3-0.8l-0.3-0.2L-202.9-89.5z M-202.9-89.5l0.5-0.9
				l0.3,0.1c0.3,0.2,0.4,0.4,0.3,0.7c-0.1,0.3-0.4,0.4-0.7,0.2L-202.9-89.5z"/>
		</g>
	</g>
</g>
<g>
	<g transform="translate(235.292679, 104.715992)">
		<g>
			<path d="M-215.1-95.6c0.2,0.2,0.5,0.1,0.6-0.1l0.4-0.6l-0.1,0l-0.4,0.6C-214.6-95.6-214.8-95.5-215.1-95.6
				c-0.2-0.2-0.2-0.4-0.1-0.6l0.4-0.6l-0.1,0l-0.4,0.6C-215.3-96-215.3-95.8-215.1-95.6z"/>
		</g>
	</g>
</g>
<g>
	<g transform="translate(247.447866, 113.580374)">
		<g>
			<path d="M-225.7-103.2c0,0,0.1,0.1,0.2,0l0-0.1C-225.5-103.2-225.6-103.2-225.7-103.2c0-0.1,0-0.1,0.1-0.2l0.1-0.2
				c0-0.1,0.1-0.1,0-0.2l0,0c0.2,0.1,0.3,0.1,0.4,0c0.1-0.1,0.1-0.3-0.1-0.5l-0.4-0.4l-0.8,0.9l0,0l0.4-0.4l0.3,0.3
				c0.1,0.1,0.1,0.2,0,0.3l-0.1,0.2C-225.7-103.3-225.7-103.2-225.7-103.2z M-225.8-104.2l0.4-0.4l0.3,0.3c0.1,0.1,0.2,0.3,0,0.4
				c-0.1,0.1-0.3,0.1-0.4,0L-225.8-104.2z"/>
		</g>
	</g>
</g>
<g>
	<g transform="translate(258.30061, 124.353209)">
		<g>
			<path d="M-236-113.4L-236-113.4l0.4,0l0.4,0.5l-0.2,0.3l0,0.1l0.6-1.1l-0.1-0.1L-236-113.4z M-235.6-113.5l0.8-0.2l0,0l-0.4,0.7
				L-235.6-113.5z"/>
		</g>
	</g>
</g>
<g>
	<g transform="translate(267.182708, 136.274598)">
		<g>
			<path d="M-243.9-124L-243.9-124l0.5-0.2l0.4,0.6l-0.5,0.3l0,0.1l1-0.6l0-0.1l-0.5,0.3l-0.4-0.6l0.5-0.3l0-0.1L-243.9-124z"/>
		</g>
	</g>
</g>
<g>
	<g transform="translate(274.350565, 149.476289)">
		<g>
			<path d="M-250.3-135.8L-250.3-135.8l1-0.3l0,0l-0.9,0.8l0,0.1l1.2,0.1l0,0l-1,0.4l0,0.1l1.1-0.4l0-0.1l-1.2-0.1l0,0l0.9-0.8
				l0-0.1L-250.3-135.8z"/>
		</g>
	</g>
</g>
<g>
	<g transform="translate(280.078368, 166.624862)">
		<g>
			<path d="M-255.4-151.1L-255.4-151.1l0.3,0.1l0.1,0.6l-0.3,0.2l0,0.1l1.1-0.7l0-0.1L-255.4-151.1z M-255-151l0.8,0.1l0,0l-0.7,0.4
				L-255-151z"/>
		</g>
	</g>
</g>
<g>
	<g transform="translate(282.508071, 181.291401)">
		<g>
			<path d="M-257.6-164.1L-257.6-164.1l1.1,0v0l-1.1,0.7l0,0.1l1.2,0l0-0.1l-1.1,0v0l1.1-0.7l0-0.1L-257.6-164.1z"/>
		</g>
	</g>
</g>
<g>
	<g transform="translate(281.715903, 205.985456)">
		<g>
			<path d="M-256.9-186.1l-0.1,0.4c-0.1,0.4,0.1,0.6,0.4,0.7c0.4,0.1,0.6-0.1,0.7-0.5l0.1-0.4L-256.9-186.1z M-256.8-186l1,0.2
				l-0.1,0.3c-0.1,0.3-0.3,0.5-0.6,0.4c-0.3-0.1-0.5-0.3-0.4-0.6L-256.8-186z"/>
		</g>
	</g>
</g>
<g>
	<g transform="translate(278.04765, 221.295802)">
		<g>
			<path d="M-253.6-199.9L-253.6-199.9l0.2,0.3l-0.2,0.6l-0.3,0l0,0.1l1.3,0l0-0.1L-253.6-199.9z M-253.3-199.5l0.6,0.5l0,0l-0.8,0
				L-253.3-199.5z"/>
		</g>
	</g>
</g>
<g>
	<g transform="translate(272.616998, 235.070752)">
		<g>
			<path d="M-248.9-211.8L-248.9-211.8l0.7,0.9l0,0l-1.1-0.3l-0.1,0.1l0.8,0.9l0-0.1l-0.8-0.8l0,0l1.1,0.3l0.1-0.1L-248.9-211.8
				L-248.9-211.8l1.1,0.4l0-0.1L-248.9-211.8z"/>
		</g>
	</g>
</g>
<g>
	<g transform="translate(262.172849, 251.738178)">
		<g>
			<path d="M-239.9-226.5c-0.2,0.3-0.2,0.6,0.1,0.9c0.3,0.2,0.6,0.2,0.9-0.1c0.2-0.3,0.2-0.6-0.1-0.9
				C-239.3-226.8-239.7-226.8-239.9-226.5z M-239.9-226.5c0.2-0.3,0.5-0.3,0.8,0c0.3,0.2,0.3,0.5,0.1,0.8c-0.2,0.3-0.5,0.3-0.8,0
				C-240.1-225.9-240.1-226.2-239.9-226.5z"/>
		</g>
	</g>
</g>
<g>
	<g transform="translate(250.171548, 264.727627)">
		<g>
			<path d="M-229.2-238.3c-0.2,0.2-0.2,0.4-0.1,0.6l0.5,0.6l0.1,0l-0.5-0.6C-229.3-237.9-229.3-238.1-229.2-238.3
				c0.2-0.1,0.4-0.1,0.6,0.1l0.5,0.6l0.1,0l-0.5-0.6C-228.7-238.4-229-238.5-229.2-238.3z"/>
		</g>
	</g>
</g>
<g>
	<g transform="translate(238.362402, 274.039256)">
		<g>
			<path d="M-218.3-246.8l-0.3,0.2c-0.3,0.2-0.4,0.5-0.2,0.8c0.2,0.3,0.5,0.4,0.8,0.2l0.3-0.2L-218.3-246.8z M-218.3-246.7l0.5,0.9
				l-0.3,0.2c-0.3,0.2-0.6,0.1-0.7-0.2c-0.2-0.3-0.1-0.5,0.2-0.7L-218.3-246.7z"/>
		</g>
	</g>
</g>
<g>
	<g transform="translate(84.542943, 230.755081)">
		<g>
			<path d="M-73.6-208.3h1.5c0,0-0.4-0.1-0.7-1l-3.7-9.5l-3.7,9.5c-0.3,0.9-0.7,1-0.7,1h0.8c0,0-0.2-0.1,0.1-1l0.8-2.1h4.7l0.8,2.1
				C-73.3-208.5-73.6-208.3-73.6-208.3z M-79.2-211.7l2.3-5.8l2.3,5.8H-79.2z"/>
		</g>
	</g>
</g>
<g>
	<g transform="translate(186.962808, 230.755081)">
		<g>
			<path d="M-169.9-218.8c-0.2,0-2.3,0-2.3,0s0.3,0.1,0.3,1v8.5c0,0.9-0.3,1-0.3,1s2.2,0,2.4,0c3.9,0,5.5-2.4,5.5-5.3
				C-164.3-216.5-165.8-218.8-169.9-218.8z M-170.1-208.6h-0.8c-0.1-0.1-0.1-0.4-0.1-0.7v-8.5c0-0.3,0-0.5,0.1-0.7h0.8
				c3.9,0,4.8,2.2,4.8,5C-165.3-210.9-166.3-208.6-170.1-208.6z"/>
		</g>
	</g>
</g>
</svg>
